<svg width="48" height="48" viewBox="0 0 48 48" fill="none" xmlns="http://www.w3.org/2000/svg">
<g filter="url(#filter0_d_41_200)">
<g clip-path="url(#clip0_41_200)">
<mask id="path-1-inside-1_41_200" fill="white">
<path d="M2 15C2 6.71573 8.71573 0 17 0H31C39.2843 0 46 6.71573 46 15V29C46 37.2843 39.2843 44 31 44H17C8.71573 44 2 37.2843 2 29V15Z"/>
</mask>
<foreignObject x="-68" y="-70" width="184" height="184"><div xmlns="http://www.w3.org/1999/xhtml" style="backdrop-filter:blur(35px);clip-path:url(#bgblur_1_41_200_clip_path);height:100%;width:100%"></div></foreignObject><rect data-figma-bg-blur-radius="70" x="2" width="44" height="44" rx="15" fill="#D9D9D9" fill-opacity="0.12"/>
<path d="M36.9499 14.6965C36.6346 14.6965 36.4197 14.7529 35.9343 15.0338L25.0047 21.6514L18.0043 16.4183C16.9094 15.6527 16.1981 15.5295 16.0397 15.5295H30.1534C30.9997 15.5295 31.689 14.8769 31.689 14.0328C31.689 13.1887 30.9997 12.4679 30.1534 12.4679H12.2014C12.1222 12.4679 12.0767 12.4569 11.8846 12.5016C11.6217 12.5541 11.3775 12.6757 11.1771 12.8538C10.9767 13.0319 10.8273 13.2601 10.7443 13.5151C10.6422 13.8198 10.6386 14.1489 10.7338 14.4558C10.8291 14.7627 11.0185 15.0319 11.2752 15.2252L23.9883 24.7351C24.2357 24.9187 24.5323 25.0242 24.8401 25.0382C25.1479 25.0522 25.4529 24.974 25.716 24.8135L36.0017 18.5905C36.0017 18.5905 35.4488 19.0855 35.4261 19.7609V28.0666C35.4261 28.4604 35.0198 28.5726 34.7822 28.5726H13.7817C13.5441 28.5726 13.1379 28.4714 13.1379 28.0666V20.4135C13.1369 20.007 12.9746 19.6175 12.6867 19.3306C12.3988 19.0436 12.0087 18.8827 11.6023 18.8831C11.1958 18.8829 10.8059 19.0439 10.518 19.3308C10.2301 19.6177 10.0678 20.0071 10.0667 20.4135V28.0666C10.0667 30.0693 11.6925 31.6335 13.7817 31.6335H34.7712C36.8487 31.6335 38.4855 30.0693 38.4855 28.0666V16.2262C38.4855 15.3829 37.7969 14.6855 36.9499 14.6965Z" fill="#ECECEC"/>
</g>
<g clip-path="url(#paint0_angular_41_200_clip_path)" data-figma-skip-parse="true" mask="url(#path-1-inside-1_41_200)"><g transform="matrix(0.022 0 0 0.022 24 22)"><foreignObject x="-1045.45" y="-1045.45" width="2090.91" height="2090.91"><div xmlns="http://www.w3.org/1999/xhtml" style="background:conic-gradient(from 90deg,rgba(221, 221, 221, 0.5) 0deg,rgba(221, 221, 221, 1) 28.8deg,rgba(222, 222, 222, 0) 151.2deg,rgba(222, 222, 222, 1) 208.8deg,rgba(222, 222, 222, 0) 331.2deg,rgba(221, 221, 221, 0.5) 360deg);height:100%;width:100%;opacity:0.25"></div></foreignObject></g></g><path d="M17 0V1H31V0V-1H17V0ZM46 15H45V29H46H47V15H46ZM31 44V43H17V44V45H31V44ZM2 29H3V15H2H1V29H2ZM17 44V43C9.26801 43 3 36.732 3 29H2H1C1 37.8366 8.16344 45 17 45V44ZM46 29H45C45 36.732 38.732 43 31 43V44V45C39.8366 45 47 37.8366 47 29H46ZM31 0V1C38.732 1 45 7.26801 45 15H46H47C47 6.16344 39.8366 -1 31 -1V0ZM17 0V-1C8.16344 -1 1 6.16344 1 15H2H3C3 7.26801 9.26801 1 17 1V0Z" data-figma-gradient-fill="{&#34;type&#34;:&#34;GRADIENT_ANGULAR&#34;,&#34;stops&#34;:[{&#34;color&#34;:{&#34;r&#34;:0.87019228935241699,&#34;g&#34;:0.87019228935241699,&#34;b&#34;:0.87019228935241699,&#34;a&#34;:1.0},&#34;position&#34;:0.079999998211860657},{&#34;color&#34;:{&#34;r&#34;:0.87058824300765991,&#34;g&#34;:0.87058824300765991,&#34;b&#34;:0.87058824300765991,&#34;a&#34;:0.0},&#34;position&#34;:0.41999998688697815},{&#34;color&#34;:{&#34;r&#34;:0.87058824300765991,&#34;g&#34;:0.87058824300765991,&#34;b&#34;:0.87058824300765991,&#34;a&#34;:1.0},&#34;position&#34;:0.57999998331069946},{&#34;color&#34;:{&#34;r&#34;:0.87058824300765991,&#34;g&#34;:0.87058824300765991,&#34;b&#34;:0.87058824300765991,&#34;a&#34;:0.0},&#34;position&#34;:0.92000001668930054}],&#34;stopsVar&#34;:[{&#34;color&#34;:{&#34;r&#34;:0.87019228935241699,&#34;g&#34;:0.87019228935241699,&#34;b&#34;:0.87019228935241699,&#34;a&#34;:1.0},&#34;position&#34;:0.079999998211860657},{&#34;color&#34;:{&#34;r&#34;:0.87058824300765991,&#34;g&#34;:0.87058824300765991,&#34;b&#34;:0.87058824300765991,&#34;a&#34;:0.0},&#34;position&#34;:0.41999998688697815},{&#34;color&#34;:{&#34;r&#34;:0.87058824300765991,&#34;g&#34;:0.87058824300765991,&#34;b&#34;:0.87058824300765991,&#34;a&#34;:1.0},&#34;position&#34;:0.57999998331069946},{&#34;color&#34;:{&#34;r&#34;:0.87058824300765991,&#34;g&#34;:0.87058824300765991,&#34;b&#34;:0.87058824300765991,&#34;a&#34;:0.0},&#34;position&#34;:0.92000001668930054}],&#34;transform&#34;:{&#34;m00&#34;:44.0,&#34;m01&#34;:0.0,&#34;m02&#34;:2.0,&#34;m10&#34;:0.0,&#34;m11&#34;:44.0,&#34;m12&#34;:0.0},&#34;opacity&#34;:0.250,&#34;blendMode&#34;:&#34;NORMAL&#34;,&#34;visible&#34;:true}" mask="url(#path-1-inside-1_41_200)"/>
</g>
<defs>
<filter id="filter0_d_41_200" x="0" y="0" width="48" height="48" filterUnits="userSpaceOnUse" color-interpolation-filters="sRGB">
<feFlood flood-opacity="0" result="BackgroundImageFix"/>
<feColorMatrix in="SourceAlpha" type="matrix" values="0 0 0 0 0 0 0 0 0 0 0 0 0 0 0 0 0 0 127 0" result="hardAlpha"/>
<feOffset dy="2"/>
<feGaussianBlur stdDeviation="1"/>
<feComposite in2="hardAlpha" operator="out"/>
<feColorMatrix type="matrix" values="0 0 0 0 0 0 0 0 0 0 0 0 0 0 0 0 0 0 0.1 0"/>
<feBlend mode="normal" in2="BackgroundImageFix" result="effect1_dropShadow_41_200"/>
<feBlend mode="normal" in="SourceGraphic" in2="effect1_dropShadow_41_200" result="shape"/>
</filter>
<clipPath id="bgblur_1_41_200_clip_path" transform="translate(68 70)"><rect x="2" width="44" height="44" rx="15"/>
</clipPath><clipPath id="paint0_angular_41_200_clip_path"><path d="M17 0V1H31V0V-1H17V0ZM46 15H45V29H46H47V15H46ZM31 44V43H17V44V45H31V44ZM2 29H3V15H2H1V29H2ZM17 44V43C9.26801 43 3 36.732 3 29H2H1C1 37.8366 8.16344 45 17 45V44ZM46 29H45C45 36.732 38.732 43 31 43V44V45C39.8366 45 47 37.8366 47 29H46ZM31 0V1C38.732 1 45 7.26801 45 15H46H47C47 6.16344 39.8366 -1 31 -1V0ZM17 0V-1C8.16344 -1 1 6.16344 1 15H2H3C3 7.26801 9.26801 1 17 1V0Z"/></clipPath><clipPath id="clip0_41_200">
<path d="M2 15C2 6.71573 8.71573 0 17 0H31C39.2843 0 46 6.71573 46 15V29C46 37.2843 39.2843 44 31 44H17C8.71573 44 2 37.2843 2 29V15Z" fill="white"/>
</clipPath>
</defs>
</svg>
