<svg width="48" height="48" viewBox="0 0 48 48" fill="none" xmlns="http://www.w3.org/2000/svg">
<g filter="url(#filter0_d_38_356)">
<g clip-path="url(#clip0_38_356)">
<mask id="path-1-inside-1_38_356" fill="white">
<path d="M2 15C2 6.71573 8.71573 0 17 0H31C39.2843 0 46 6.71573 46 15V29C46 37.2843 39.2843 44 31 44H17C8.71573 44 2 37.2843 2 29V15Z"/>
</mask>
<foreignObject x="-68" y="-70" width="184" height="184"><div xmlns="http://www.w3.org/1999/xhtml" style="backdrop-filter:blur(35px);clip-path:url(#bgblur_1_38_356_clip_path);height:100%;width:100%"></div></foreignObject><rect data-figma-bg-blur-radius="70" x="2" width="44" height="44" rx="15" fill="#D9D9D9" fill-opacity="0.12"/>
<path d="M27.239 10.8625H37.2918" stroke="white" stroke-width="3" stroke-linecap="round" stroke-linejoin="round"/>
<path d="M27.239 18.043H37.2918" stroke="white" stroke-width="3" stroke-linecap="round" stroke-linejoin="round"/>
<path d="M11.4417 25.2236H37.2917" stroke="white" stroke-width="3" stroke-linecap="round" stroke-linejoin="round"/>
<path d="M11.4417 32.4042H37.2917" stroke="white" stroke-width="3" stroke-linecap="round" stroke-linejoin="round"/>
<path d="M20.7765 16.5064V12.3992C20.7765 10.7907 20.1303 10.1445 18.5075 10.1445H14.4145C12.8061 10.1445 12.1599 10.7907 12.1599 12.3992V16.4921C12.1599 18.1149 12.8061 18.7611 14.4145 18.7611H18.5075C20.1303 18.7611 20.7765 18.1149 20.7765 16.5064Z" stroke="white" stroke-width="3" stroke-linecap="round" stroke-linejoin="round"/>
</g>
<g clip-path="url(#paint0_angular_38_356_clip_path)" data-figma-skip-parse="true" mask="url(#path-1-inside-1_38_356)"><g transform="matrix(0.022 0 0 0.022 24 22)"><foreignObject x="-1045.45" y="-1045.45" width="2090.91" height="2090.91"><div xmlns="http://www.w3.org/1999/xhtml" style="background:conic-gradient(from 90deg,rgba(221, 221, 221, 0.5) 0deg,rgba(221, 221, 221, 1) 28.8deg,rgba(222, 222, 222, 0) 151.2deg,rgba(222, 222, 222, 1) 208.8deg,rgba(222, 222, 222, 0) 331.2deg,rgba(221, 221, 221, 0.5) 360deg);height:100%;width:100%;opacity:0.25"></div></foreignObject></g></g><path d="M17 0V1H31V0V-1H17V0ZM46 15H45V29H46H47V15H46ZM31 44V43H17V44V45H31V44ZM2 29H3V15H2H1V29H2ZM17 44V43C9.26801 43 3 36.732 3 29H2H1C1 37.8366 8.16344 45 17 45V44ZM46 29H45C45 36.732 38.732 43 31 43V44V45C39.8366 45 47 37.8366 47 29H46ZM31 0V1C38.732 1 45 7.26801 45 15H46H47C47 6.16344 39.8366 -1 31 -1V0ZM17 0V-1C8.16344 -1 1 6.16344 1 15H2H3C3 7.26801 9.26801 1 17 1V0Z" data-figma-gradient-fill="{&#34;type&#34;:&#34;GRADIENT_ANGULAR&#34;,&#34;stops&#34;:[{&#34;color&#34;:{&#34;r&#34;:0.87019228935241699,&#34;g&#34;:0.87019228935241699,&#34;b&#34;:0.87019228935241699,&#34;a&#34;:1.0},&#34;position&#34;:0.079999998211860657},{&#34;color&#34;:{&#34;r&#34;:0.87058824300765991,&#34;g&#34;:0.87058824300765991,&#34;b&#34;:0.87058824300765991,&#34;a&#34;:0.0},&#34;position&#34;:0.41999998688697815},{&#34;color&#34;:{&#34;r&#34;:0.87058824300765991,&#34;g&#34;:0.87058824300765991,&#34;b&#34;:0.87058824300765991,&#34;a&#34;:1.0},&#34;position&#34;:0.57999998331069946},{&#34;color&#34;:{&#34;r&#34;:0.87058824300765991,&#34;g&#34;:0.87058824300765991,&#34;b&#34;:0.87058824300765991,&#34;a&#34;:0.0},&#34;position&#34;:0.92000001668930054}],&#34;stopsVar&#34;:[{&#34;color&#34;:{&#34;r&#34;:0.87019228935241699,&#34;g&#34;:0.87019228935241699,&#34;b&#34;:0.87019228935241699,&#34;a&#34;:1.0},&#34;position&#34;:0.079999998211860657},{&#34;color&#34;:{&#34;r&#34;:0.87058824300765991,&#34;g&#34;:0.87058824300765991,&#34;b&#34;:0.87058824300765991,&#34;a&#34;:0.0},&#34;position&#34;:0.41999998688697815},{&#34;color&#34;:{&#34;r&#34;:0.87058824300765991,&#34;g&#34;:0.87058824300765991,&#34;b&#34;:0.87058824300765991,&#34;a&#34;:1.0},&#34;position&#34;:0.57999998331069946},{&#34;color&#34;:{&#34;r&#34;:0.87058824300765991,&#34;g&#34;:0.87058824300765991,&#34;b&#34;:0.87058824300765991,&#34;a&#34;:0.0},&#34;position&#34;:0.92000001668930054}],&#34;transform&#34;:{&#34;m00&#34;:44.0,&#34;m01&#34;:0.0,&#34;m02&#34;:2.0,&#34;m10&#34;:0.0,&#34;m11&#34;:44.0,&#34;m12&#34;:0.0},&#34;opacity&#34;:0.250,&#34;blendMode&#34;:&#34;NORMAL&#34;,&#34;visible&#34;:true}" mask="url(#path-1-inside-1_38_356)"/>
</g>
<defs>
<filter id="filter0_d_38_356" x="0" y="0" width="48" height="48" filterUnits="userSpaceOnUse" color-interpolation-filters="sRGB">
<feFlood flood-opacity="0" result="BackgroundImageFix"/>
<feColorMatrix in="SourceAlpha" type="matrix" values="0 0 0 0 0 0 0 0 0 0 0 0 0 0 0 0 0 0 127 0" result="hardAlpha"/>
<feOffset dy="2"/>
<feGaussianBlur stdDeviation="1"/>
<feComposite in2="hardAlpha" operator="out"/>
<feColorMatrix type="matrix" values="0 0 0 0 0 0 0 0 0 0 0 0 0 0 0 0 0 0 0.1 0"/>
<feBlend mode="normal" in2="BackgroundImageFix" result="effect1_dropShadow_38_356"/>
<feBlend mode="normal" in="SourceGraphic" in2="effect1_dropShadow_38_356" result="shape"/>
</filter>
<clipPath id="bgblur_1_38_356_clip_path" transform="translate(68 70)"><rect x="2" width="44" height="44" rx="15"/>
</clipPath><clipPath id="paint0_angular_38_356_clip_path"><path d="M17 0V1H31V0V-1H17V0ZM46 15H45V29H46H47V15H46ZM31 44V43H17V44V45H31V44ZM2 29H3V15H2H1V29H2ZM17 44V43C9.26801 43 3 36.732 3 29H2H1C1 37.8366 8.16344 45 17 45V44ZM46 29H45C45 36.732 38.732 43 31 43V44V45C39.8366 45 47 37.8366 47 29H46ZM31 0V1C38.732 1 45 7.26801 45 15H46H47C47 6.16344 39.8366 -1 31 -1V0ZM17 0V-1C8.16344 -1 1 6.16344 1 15H2H3C3 7.26801 9.26801 1 17 1V0Z"/></clipPath><clipPath id="clip0_38_356">
<path d="M2 15C2 6.71573 8.71573 0 17 0H31C39.2843 0 46 6.71573 46 15V29C46 37.2843 39.2843 44 31 44H17C8.71573 44 2 37.2843 2 29V15Z" fill="white"/>
</clipPath>
</defs>
</svg>
